<?xml version="1.0" standalone="no"?>
<!DOCTYPE svg PUBLIC "-//W3C//DTD SVG 20010904//EN"
 "http://www.w3.org/TR/2001/REC-SVG-20010904/DTD/svg10.dtd">
<svg version="1.0" xmlns="http://www.w3.org/2000/svg"
 width="1200.000000pt" height="1200.000000pt" viewBox="0 0 1200.000000 1200.000000"
 preserveAspectRatio="xMidYMid meet">

<g transform="translate(0.000000,1200.000000) scale(0.100000,-0.100000)"
fill="#000000" stroke="none">
<path d="M4035 10313 c-225 -223 -641 -632 -922 -910 l-513 -505 -199 193
c-109 107 -345 338 -525 513 l-327 320 -275 -275 -274 -274 800 -800 800 -800
1200 1200 1200 1200 -272 272 c-150 150 -275 273 -278 272 -3 0 -189 -183
-415 -406z"/>
<path d="M4035 7063 c-225 -223 -641 -632 -922 -910 l-513 -505 -199 193
c-109 107 -345 338 -525 513 l-327 320 -275 -275 -274 -274 800 -800 800 -800
1200 1200 1200 1200 -272 272 c-150 150 -275 273 -278 272 -3 0 -189 -183
-415 -406z"/>
<path d="M4035 3813 c-225 -223 -641 -632 -922 -910 l-513 -505 -199 193
c-109 107 -345 338 -525 513 l-327 320 -275 -275 -274 -274 800 -800 800 -800
1200 1200 1200 1200 -272 272 c-150 150 -275 273 -278 272 -3 0 -189 -183
-415 -406z"/>
</g>
</svg>
